<svg xmlns="http://www.w3.org/2000/svg" viewBox="0 0 100 100" xmlns:v="https://vecta.io/nano"><path d="M30.5,59.68c-4.06,4.17-6.2,11-6.57,13.39s.49,2.8,1.34,2.92,3.55-.63,8.44-2.95L32.53,58a12.76,12.76,0,0,0-2,1.66" fill="#bbbcc0"/><path d="M66.36 58.59c-4.27-4.38-9.63-4.56-11-4.73H44.77a39.84 39.84 0 0 0-7.05 1.67.7.7 0 0 0-.15.43 1 1 0 0 0 1 1c.57 0 8.44-.16 8.85-.16a2.68 2.68 0 0 1 2.67 2.76c.08 2.41.09 23 .09 24.79a15.58 15.58 0 0 0 15.39-11.52c.05 0 .25-.67.26-.72 1.78-5.07.53-13.52.53-13.52" fill="#85898e"/><path d="M47.47 56.8l-8.85.16a1 1 0 0 1-1-1 .7.7 0 0 1 .15-.43A22.43 22.43 0 0 0 32.53 58l1.18 15 .93-.46a15.93 15.93 0 0 0 15.48 11.81h.11l-.09-24.79a2.68 2.68 0 0 0-2.67-2.76" fill="#bbbcc0"/><path d="M67.52 72c4.57-3.58 7.58-10 8.26-12.4s-.12-2.84-1-3.07-3.6.17-8.75 1.84l-.78 15A12.71 12.71 0 0 0 67.52 72m-36.29 2.19l3.47-1.61-1.72-9.35c0-.2-1.89 2.09-2.3 5.34s0 4.8.55 5.62" fill="#85898e"/><path d="M40.35 13.83h0a18.57 18.57 0 0 0-17.6 12.64l-3.79.83a12 12 0 0 0-1.29 4.7c0 1.75.81 4.56 1.16 4.74s3.12.83 3.68.93A18.58 18.58 0 0 0 40.32 51h9.53V13.83z" fill="#bbbcc0"/><path d="M81,27.3c-.21-.14-4-.86-4-.87a18.59,18.59,0,0,0-17.59-12.6H49.86V51h9.53A18.58,18.58,0,0,0,77.26,37.46c0,.13,0,.21.06.21.28,0,3.41-.78,3.76-1s1.16-3,1.16-4.74A12,12,0,0,0,81,27.3" fill="#85898e"/><path d="M59.28,20.87H40.34a11.77,11.77,0,0,0,0,23.54H59.28a11.77,11.77,0,0,0,0-23.54" fill="#4a1aaf"/><path d="M49.85,23.75h-9.3c-6.21,0-11.74,4.89-11.74,10.91a11.78,11.78,0,0,0,11.6,9.75h2.27v2.92s.07,1.4,1,.53c.81-.72,2.82-2.74,3.52-3.45h2.6Z" fill="#744fc1"/><path d="M42.47 32.36A3.48 3.48 0 1 1 39 28.88a3.48 3.48 0 0 1 3.48 3.48m21.95 0A3.48 3.48 0 1 1 61 28.88a3.48 3.48 0 0 1 3.48 3.48m-10.36 3.76h-8.49v.07a4.25 4.25 0 0 0 8.49 0h0z" fill="#fff"/></svg>